<svg id="Group_11" data-name="Group 11" xmlns="http://www.w3.org/2000/svg" width="455" height="254" viewBox="0 0 455 254">
  <g id="Rectangle_9" data-name="Rectangle 9" fill="#fff" stroke="#707070" stroke-width="1">
    <rect width="455" height="254" stroke="none"/>
    <rect x="0.5" y="0.5" width="454" height="253" fill="none"/>
  </g>
  <g id="Group_2" data-name="Group 2" transform="translate(137.751 83)">
    <g id="Group_1" data-name="Group 1" transform="translate(35.171 0) rotate(49)">
      <g id="Path_2" data-name="Path 2" transform="translate(15.627 -0.146)" fill="#0a0a0a">
        <path d="M 0.5777634382247925 15.66696929931641 L 6.039193630218506 1.370762586593628 L 11.23443794250488 15.56715488433838 L 0.5777634382247925 15.66696929931641 Z" stroke="none"/>
        <path d="M 6.029139041900635 2.798181533813477 L 1.306637763977051 15.16011905670166 L 10.52147006988525 15.07380867004395 L 6.029139041900635 2.798181533813477 M 6.049252986907959 -0.05665969848632813 L 11.94741249084473 16.06050109863281 L -0.1511068344116211 16.17382049560547 L 6.049252986907959 -0.05665969848632813 Z" stroke="none" fill="#707070"/>
      </g>
      <g id="Path_3" data-name="Path 3" transform="translate(24.602 45.992) rotate(-166)" fill="#0a0a0a">
        <path d="M 0.6127172708511353 15.53051567077637 L 6.159574508666992 1.345579981803894 L 11.49144649505615 15.44690704345703 L 0.6127172708511353 15.53051567077637 Z" stroke="none"/>
        <path d="M 6.151731967926025 2.738579750061035 L 1.347322463989258 15.02486038208008 L 10.76993274688721 14.95244312286377 L 6.151731967926025 2.738579750061035 M 6.167418479919434 -0.04739761352539063 L 12.21295833587646 15.94138145446777 L -0.1218814849853516 16.03618049621582 L 6.167418479919434 -0.04739761352539063 Z" stroke="none" fill="#707070"/>
      </g>
      <g id="Path_4" data-name="Path 4" transform="translate(42.281 10.137) rotate(70)" fill="#0a0a0a">
        <path d="M 11.73416519165039 15.62089729309082 L 0.8492447137832642 15.53326511383057 L 6.179024696350098 1.441365718841553 L 11.73416519165039 15.62089729309082 Z" stroke="none"/>
        <path d="M 6.187238693237305 2.833042144775391 L 1.570733070373535 15.03904247283936 L 10.99894618988037 15.11495494842529 L 6.187238693237305 2.833042144775391 M 6.170810222625732 0.04968833923339844 L 12.46938037872314 16.12682914733887 L 0.1277599334716797 16.02745819091797 L 6.170810222625732 0.04968833923339844 Z" stroke="none" fill="#707070"/>
      </g>
      <g id="Path_5" data-name="Path 5" transform="matrix(-0.105, -0.995, 0.995, -0.105, 1.018, 29.621)" fill="#0a0a0a">
        <path d="M 11.80704402923584 15.56803512573242 L 0.8728262186050415 15.46492576599121 L 6.207363128662109 1.439664959907532 L 11.80704402923584 15.56803512573242 Z" stroke="none"/>
        <path d="M 6.216958045959473 2.820876121520996 L 1.595361709594727 14.97171401977539 L 11.06826400756836 15.06104373931885 L 6.216958045959473 2.820876121520996 M 6.197764873504639 0.05844688415527344 L 12.54582500457764 16.07502555847168 L 0.1502847671508789 15.95813655853271 L 6.197764873504639 0.05844688415527344 Z" stroke="none" fill="#707070"/>
      </g>
    </g>
    <text id="Pylon_Tech" data-name="Pylon Tech" transform="translate(52.793 43.583)" fill="#0a0a0a" font-size="20" font-family="Arial-BoldMT, Arial" letter-spacing="-0.016em" font-weight="700"><tspan x="0" y="0">PYLON </tspan><tspan y="0" font-family="ArialMT, Arial" font-weight="400">TECH</tspan></text>
  </g>
</svg>
